<svg xmlns="http://www.w3.org/2000/svg">symbol id="outline" viewBox="0 0 364 169"><rect width="362" height="161" x="1" y="1" stroke="#EAF1FB" stroke-width="2" rx="27"/><rect width="340" height="150" x="12" y="18" stroke="#EAF1FB" stroke-width="2" rx="27"/></symbol><symbol id="chat" viewBox="0 0 45 45"><g fill="#fff" clip-path="url(#a)"><path d="M41.18 26.945a1.758 1.758 0 0 0-3.26 1.318l2.07 5.12-6.148-2.71a1.758 1.758 0 0 0-1.399-.008 16.948 16.948 0 0 1-6.69 1.351c-9.411 0-15.733-7.368-15.733-14.25 0-7.858 7.058-14.25 15.732-14.25 8.675 0 15.733 6.392 15.733 14.25 0 .613-.057 1.347-.157 2.014a1.758 1.758 0 1 0 3.477.518A17.69 17.69 0 0 0 45 17.766c0-4.775-2.022-9.256-5.693-12.616C35.678 1.829 30.865 0 25.752 0c-5.112 0-9.925 1.83-13.554 5.15-3.28 3.003-5.243 6.9-5.624 11.103C2.447 18.986.001 23.366.001 28.083c0 2.947.928 5.743 2.695 8.15L.13 42.582a1.758 1.758 0 0 0 2.338 2.268l7.403-3.264a16.73 16.73 0 0 0 5.863 1.044c.044 0 .087-.003.13-.006 2.939-.022 5.796-.795 8.27-2.242 2.217-1.296 4.04-3.076 5.318-5.178a20.23 20.23 0 0 0 3.652-1.015l9.43 4.157A1.756 1.756 0 0 0 44.466 38a1.758 1.758 0 0 0 .406-1.92l-3.692-9.135zM15.733 39.111c-.024 0-.047.003-.071.004a13.185 13.185 0 0 1-5.136-1.05 1.757 1.757 0 0 0-1.399.008l-4.116 1.815 1.327-3.285a1.76 1.76 0 0 0-.291-1.8c-1.656-1.941-2.53-4.265-2.53-6.72 0-2.809 1.18-5.47 3.248-7.488.644 3.509 2.46 6.865 5.2 9.502 3.41 3.281 7.92 5.182 12.789 5.411-2.287 2.25-5.558 3.603-9.021 3.603z"/><path d="M25.664 19.6a1.758 1.758 0 1 0 0-3.516 1.758 1.758 0 0 0 0 3.516zm7.031 0a1.758 1.758 0 1 0 0-3.516 1.758 1.758 0 0 0 0 3.516zm-14.062 0a1.758 1.758 0 1 0 0-3.516 1.758 1.758 0 0 0 0 3.516z"/></g><defs><clipPath id="a"><path fill="#fff" d="M0 0h45v45H0z"/></clipPath></defs></symbol><symbol id="design" viewBox="0 0 88 88"><circle cx="44" cy="44" r="44" fill="#F3EBFF"/><g fill="#7118EF" clip-path="url(#a)" filter="url(#b)"><path d="M49.801 39.504a2.157 2.157 0 0 1-3.559 2.254 2.159 2.159 0 1 1 2.254-3.559L54.695 32 41.16 34.506l-3.798 8.545 7.586 7.586 8.545-3.798L56 33.305l-6.2 6.199zm-14.749 3.271L32 45.827 42.173 56l3.052-3.052-10.173-10.173z"/><path d="M47.05 40.231a.72.72 0 0 0 1.227.51v-.001a.72.72 0 1 0-1.228-.509z"/></g><defs><filter id="b" width="54" height="54" x="17" y="27" color-interpolation-filters="sRGB" filterUnits="userSpaceOnUse"><feFlood flood-opacity="0" result="BackgroundImageFix"/><feColorMatrix in="SourceAlpha" result="hardAlpha" values="0 0 0 0 0 0 0 0 0 0 0 0 0 0 0 0 0 0 127 0"/><feOffset dy="10"/><feGaussianBlur stdDeviation="7.5"/><feColorMatrix values="0 0 0 0 0.443137 0 0 0 0 0.0941176 0 0 0 0 0.937255 0 0 0 0.2 0"/><feBlend in2="BackgroundImageFix" result="effect1_dropShadow_1_1277"/><feBlend in="SourceGraphic" in2="effect1_dropShadow_1_1277" result="shape"/></filter><clipPath id="a"><path fill="#fff" d="M0 0h24v24H0z" transform="translate(32 32)"/></clipPath></defs></symbol><symbol id="decrease" viewBox="0 0 45 45"><g clip-path="url(#a)"><path fill="#fff" d="M43.885 25.977l-17.457 17.48A5.27 5.27 0 0 1 22.692 45a5.265 5.265 0 0 1-3.731-1.54L1.298 25.987a4.087 4.087 0 0 1-.897-4.47 4.089 4.089 0 0 1 3.79-2.532h5.826v-5.098a1.758 1.758 0 0 1 3.516 0v6.856c0 .97-.787 1.758-1.758 1.758H4.191a.557.557 0 0 0-.542.36.545.545 0 0 0 .127.632L21.44 40.965a1.77 1.77 0 0 0 2.502.006l17.455-17.478a.545.545 0 0 0 .126-.631.558.558 0 0 0-.541-.36h-7.233c-.97 0-1.758-.787-1.758-1.758v-6.857a1.758 1.758 0 1 1 3.516 0v5.098h5.475a4.09 4.09 0 0 1 3.789 2.53 4.083 4.083 0 0 1-.886 4.462zm-32.11-22.46a1.758 1.758 0 1 0 0-3.517 1.758 1.758 0 0 0 0 3.516zm0 6.152a1.758 1.758 0 1 0 0-3.516 1.758 1.758 0 0 0 0 3.516zM33.75 3.516a1.758 1.758 0 1 0 0-3.516 1.758 1.758 0 0 0 0 3.516zm0 6.153a1.758 1.758 0 1 0 0-3.516 1.758 1.758 0 0 0 0 3.516zm-10.052 16.7H21.08c-.419 0-.87-.24-.87-.769a1.758 1.758 0 0 0-3.515 0c0 2.349 1.84 4.2 4.22 4.28v.972a1.758 1.758 0 1 0 3.516 0v-1.018c2.419-.337 4.221-2.317 4.221-4.783v-1.07a4.85 4.85 0 0 0-1.464-3.493 4.954 4.954 0 0 0-3.49-1.414h-1.611c-.774 0-1.429-.685-1.429-1.495v-.64c0-.788.614-1.381 1.429-1.381h1.523c.448 0 .911.3.911.801a1.758 1.758 0 0 0 3.516 0c0-2.107-1.556-3.865-3.606-4.241v-1.13a1.758 1.758 0 1 0-3.515 0v1.19A4.909 4.909 0 0 0 18.6 13.45a4.84 4.84 0 0 0-1.46 3.49v.64c0 2.763 2.219 5.01 4.945 5.01h1.61c.808 0 1.44.612 1.44 1.393v1.069c0 .865-.724 1.318-1.44 1.318z"/></g><defs><clipPath id="a"><path fill="#fff" d="M0 0h45v45H0z"/></clipPath></defs></symbol><symbol id="dev" viewBox="0 0 88 88"><circle cx="44" cy="44" r="44" fill="#FFEEE5"/><g clip-path="url(#a)" filter="url(#b)"><path fill="#FF5600" d="M44.03 31.953l-10.39 6v12l10.39 6 10.39-6v-12l-10.39-6zm-4.01 13.892l-.995.995-2.887-2.887 2.887-2.886.995.995-1.892 1.891 1.892 1.892zm2.985 1.735l-1.259-.63 3.313-6.624 1.258.63-3.312 6.624zm6.034-.74l-.995-.995 1.891-1.892-1.891-1.891.995-.995 2.886 2.886-2.886 2.887z"/></g><defs><filter id="b" width="54" height="54" x="17" y="27" color-interpolation-filters="sRGB" filterUnits="userSpaceOnUse"><feFlood flood-opacity="0" result="BackgroundImageFix"/><feColorMatrix in="SourceAlpha" result="hardAlpha" values="0 0 0 0 0 0 0 0 0 0 0 0 0 0 0 0 0 0 127 0"/><feOffset dy="10"/><feGaussianBlur stdDeviation="7.5"/><feColorMatrix values="0 0 0 0 1 0 0 0 0 0.337255 0 0 0 0 0 0 0 0 0.2 0"/><feBlend in2="BackgroundImageFix" result="effect1_dropShadow_1_1252"/><feBlend in="SourceGraphic" in2="effect1_dropShadow_1_1252" result="shape"/></filter><clipPath id="a"><path fill="#fff" d="M0 0h24v24H0z" transform="translate(32 32)"/></clipPath></defs></symbol><symbol id="knowledge" viewBox="0 0 30 30"><g fill="#fff" clip-path="url(#a)"><path d="M12.363 8.212v3.636l.258.258c.082.082 2.059 2.015 5.894 2.015 3.836 0 5.813-1.933 5.895-2.015l.258-.258V8.212l1.758-.703v4.854h1.757V6.806l1.488-.595-11.155-4.462L7.36 6.21l5.003 2.001zm10.547 2.863c-.56.418-2.012 1.288-4.395 1.288-2.383 0-3.835-.87-4.394-1.288v-2.16l4.394 1.758 4.395-1.758v2.16zm2.028-4.864L18.516 8.78l-6.423-2.57 6.422-2.568 6.423 2.569z"/><path d="M6.774 7.653L5.53 6.41 4.406 7.534a6.16 6.16 0 0 1 6.14-5.776V0c-4.241 0-7.713 3.357-7.9 7.554L1.5 6.41.257 7.653l3.258 3.258 3.259-3.258zM29.742 20.59l-3.258-3.259-3.258 3.258 1.243 1.243 1.136-1.136v1.394a6.16 6.16 0 0 1-6.152 6.152V30c4.362 0 7.91-3.549 7.91-7.91v-1.394l1.137 1.136 1.242-1.243zm-8.59 4.078v-5.557l1.488-.595-11.156-4.463L.33 18.516l5.003 2.001v3.636l.257.258c.083.082 2.06 2.015 5.895 2.015 3.836 0 5.813-1.933 5.895-2.015l.258-.258v-3.636l1.757-.703v4.854h1.758zM15.88 23.38c-.56.417-2.012 1.288-4.395 1.288-2.383 0-3.835-.87-4.394-1.288v-2.16l4.394 1.758 4.395-1.758v2.16zm-4.395-2.295l-6.422-2.57 6.422-2.568 6.423 2.569-6.423 2.569z"/></g><defs><clipPath id="a"><path fill="#fff" d="M0 0h30v30H0z"/></clipPath></defs></symbol><symbol id="energy" viewBox="0 0 45 45"><g fill="#fff" clip-path="url(#a)"><path d="M34.742 15.94l-9.546 2.088 4.667-16.344c.406-1.42-1.494-2.33-2.345-1.12L8.898 27.015c-.7.995.213 2.33 1.394 2.039l8.505-2.094-4.652 16.36c-.4 1.41 1.466 2.308 2.327 1.146l19.61-26.453c.724-.976-.153-2.332-1.34-2.073zM18.658 37.092L21.954 25.5a1.319 1.319 0 0 0-1.583-1.64l-7.289 1.793 12.106-17.2-3.133 10.972a1.319 1.319 0 0 0 1.55 1.65l8.266-1.808-13.213 17.824zm15.232-.002l-3.163-.052 1.68-3.305a1.318 1.318 0 1 0-2.35-1.195l-2.637 5.185c-.536 1.052.166 1.74 1.177 1.916l3.156.053-1.7 3.4a1.318 1.318 0 0 0 2.358 1.18l2.637-5.274a1.321 1.321 0 0 0-1.158-1.908zM13.366.143a1.318 1.318 0 0 0-1.768.59L8.96 6.004a1.32 1.32 0 0 0 1.187 1.908h3.132l-1.682 3.365a1.318 1.318 0 0 0 2.358 1.18l2.636-5.274a1.32 1.32 0 0 0-1.179-1.907h-3.14l1.683-3.366a1.318 1.318 0 0 0-.59-1.768z"/></g><defs><clipPath id="a"><path fill="#fff" d="M0 0h45v45H0z"/></clipPath></defs></symbol><symbol id="lines-button" viewBox="0 0 161 64"><path stroke="#C3E3F8" stroke-opacity=".8" d="M158.076 39.077c-.286 3.136-2.603 6.03-6.769 8.556-4.155 2.519-10.059 4.612-17.305 6.17-14.487 3.116-34.227 4.07-55.78 2.11-21.552-1.96-40.795-6.46-54.483-12.138-6.847-2.84-12.276-5.964-15.908-9.191-3.642-3.236-5.4-6.5-5.114-9.637.285-3.136 2.603-6.03 6.768-8.556 4.156-2.52 10.06-4.612 17.306-6.17C41.278 7.104 61.018 6.15 82.57 8.11c21.552 1.96 40.796 6.46 54.484 12.137 6.846 2.84 12.275 5.964 15.908 9.191 3.641 3.236 5.399 6.501 5.114 9.638z"/><path stroke="#C3E3F8" d="M157.495 24.527c.301 3.15-1.426 6.433-5.019 9.691-3.584 3.25-8.95 6.403-15.724 9.276-13.542 5.743-32.601 10.322-53.963 12.36C61.426 57.892 41.845 57 27.462 53.921c-7.195-1.54-13.06-3.621-17.195-6.135-4.143-2.52-6.46-5.418-6.76-8.568-.301-3.15 1.426-6.434 5.018-9.692 3.585-3.25 8.95-6.402 15.725-9.275C37.79 14.508 56.85 9.929 78.213 7.89c21.362-2.038 40.943-1.146 55.327 1.933 7.195 1.54 13.06 3.62 17.194 6.135 4.144 2.52 6.46 5.417 6.761 8.568z"/></symbol><symbol id="e-learning" viewBox="0 0 201 59"><path fill="#00ACFF" d="M27.512 3.088c.228.293.488.52.781.683.326.163.619.375.879.635.195.228.325.375.39.44 0 .358-.08.7-.244 1.025-.13.326-.211.684-.244 1.074-.065.847-.195 1.514-.39 2.002-.196.456-.277.88-.245 1.27 0 .293.082.602.245.928.162.325.113.618-.147.878a1.37 1.37 0 0 1-.537.342c-.163.033-.374.082-.635.147-.26.065-.52.146-.781.244a2.656 2.656 0 0 1-.732.098 17.063 17.063 0 0 0-.538-.098 17.004 17.004 0 0 0-.537-.098l-.244-.244a7.442 7.442 0 0 0-.146-.39.71.71 0 0 0 .049-.44c0-.163.016-.325.048-.488a2.97 2.97 0 0 1 .342-1.221c.228-.39.39-.781.488-1.172 0-.293.05-.537.147-.732 0-.26.049-.489.146-.684.098-.195.13-.39.098-.586a1.15 1.15 0 0 0 .244-.537c.033-.228.082-.472.147-.732a2.379 2.379 0 0 0-.977-.196c-.358-.032-.667.033-.928.196-1.237.032-2.246.374-3.027 1.025a7.67 7.67 0 0 0-1.904 2.197c-.26.293-.521.635-.782 1.026-.227.358-.472.716-.732 1.074-.325.488-.586.863-.781 1.123-.195.26-.375.52-.537.781a3.94 3.94 0 0 0-.342.635c-.098.195-.212.407-.342.635a6.651 6.651 0 0 1-.342.683c-.13.196-.244.423-.341.684l-.098.293a1.896 1.896 0 0 1-.098.244.608.608 0 0 0 0 .342c.033.098.065.179.098.244.032.163.049.31.049.44s.032.276.097.439c.196.325.326.586.391.781.065.163.146.326.244.488.098.163.196.31.293.44.13.098.244.211.342.342.358.065.683.13.976.195.326.065.635.114.928.146.358.033.7 0 1.026-.097a2.21 2.21 0 0 1 1.025-.049c.293-.195.57-.18.83.049.26.228.423.44.488.635.033.227.017.488-.049.78-.032.294-.097.522-.195.684-.13.228-.309.424-.537.586-.195.13-.374.244-.537.342a4.324 4.324 0 0 0-.977.195 2.918 2.918 0 0 1-.927.05c-.782.195-1.612.39-2.49.585a36.66 36.66 0 0 0-2.54.684c-.325.065-.52.13-.585.195-.066.065-.18.098-.342.098a11.44 11.44 0 0 0-1.27.537 7.96 7.96 0 0 0-1.123.683c-.293.26-.52.44-.684.538-.162.097-.276.26-.341.488-.423.488-.895.944-1.416 1.367L6.32 29.7c-.162.163-.26.277-.293.342 0 .065-.016.18-.048.342 0 .325-.05.667-.147 1.025a14.39 14.39 0 0 0-.146.977c-.033.39-.033.748 0 1.074.032.325.13.618.293.879.065.065.13.163.195.293.097.097.179.228.244.39.13.228.244.424.342.586.097.13.276.277.537.44.098.065.211.13.342.195.13.065.228.098.293.098a.802.802 0 0 0 .244-.049c.13-.065.244-.114.342-.146a.923.923 0 0 1 .293-.05.33.33 0 0 0 .244-.097 4.41 4.41 0 0 0 1.416-.683 8.385 8.385 0 0 1 1.416-.782l.39-.195c.163-.098.326-.18.489-.244l1.171-.88c.424-.292.896-.569 1.417-.83a6.41 6.41 0 0 0 1.025-.585c.325-.228.618-.456.879-.684.163-.293.325-.537.488-.732.195-.195.342-.44.44-.733.13-.032.211-.097.244-.195.065-.13.146-.244.244-.342a1.911 1.911 0 0 1-.147-.39c-.032-.163-.097-.277-.195-.342-.293.032-.586 0-.879-.098a1.949 1.949 0 0 0-.976-.049.805.805 0 0 0-.245.05l-.292.097a6.326 6.326 0 0 0-1.514.488c-.456.228-.83.505-1.123.83-.033.163-.098.277-.196.342-.065.065-.13.146-.195.244-.163.326-.31.668-.44 1.026a2.82 2.82 0 0 1-.488.927c-.097 0-.195-.048-.293-.146a.769.769 0 0 1-.195-.293c0-.065.016-.163.049-.293.033-.163.049-.293.049-.39.032-.098.032-.18 0-.245a.78.78 0 0 1 0-.39c.032-.196.065-.424.097-.684.033-.26.082-.472.147-.635.13-.456.26-.765.39-.928a.941.941 0 0 1 .489-.39.872.872 0 0 1 .244-.244c.13-.098.277-.196.44-.293.26-.163.423-.277.488-.342a.873.873 0 0 1 .244-.244 9.79 9.79 0 0 1 .537-.196c.228-.097.423-.162.586-.195.228-.032.456-.081.684-.146.26-.098.537-.147.83-.147.325.065.553.114.683.147.13 0 .244-.017.342-.05a.792.792 0 0 1 .39 0 .54.54 0 0 1 .245.05h.293c.195-.033.374-.066.537-.098a.487.487 0 0 1 .488.195c.293.065.537.196.732.39.228.164.424.343.586.538.066.098.13.179.196.244.065.065.13.163.195.293.163.39.195.814.098 1.27a2.668 2.668 0 0 1-.44 1.172c-.032.13-.081.244-.146.341-.065.065-.13.147-.196.244-.716.717-1.22 1.4-1.513 2.051a6.54 6.54 0 0 0-1.123.977 4.249 4.249 0 0 1-1.075.927c-.227.26-.504.472-.83.635a4.27 4.27 0 0 0-.83.489 12.97 12.97 0 0 1-.976.683 6.416 6.416 0 0 1-1.026.586 3.455 3.455 0 0 1-.927.44c-.391.26-.814.472-1.27.634-.423.163-.83.375-1.22.635-.554.163-1.124.39-1.71.684-.553.293-1.09.52-1.61.683-.196.033-.457 0-.782-.097-.26-.066-.57-.228-.928-.489-.358-.227-.602-.472-.732-.732-.228-.065-.407-.228-.537-.488a2.342 2.342 0 0 0-.391-.684L3 37.219a3.944 3.944 0 0 1-.342-.635 4.865 4.865 0 0 1-.635-1.074c-.162-.488-.26-.798-.293-.928a5.824 5.824 0 0 1-.195-.44 5.814 5.814 0 0 0-.195-.439l-.293-.39a3.376 3.376 0 0 1 .195-1.954c.228-.65.456-1.204.684-1.66.13-.163.228-.309.293-.44l.195-.488a8.25 8.25 0 0 1 .488-.78l.489-.782c.162-.26.293-.537.39-.83.13-.293.293-.57.489-.83.097-.358.26-.619.488-.781.228-.196.456-.424.683-.684.163-.065.293-.146.391-.244l.39-.293a23.135 23.135 0 0 0 2.003-.977 20.169 20.169 0 0 1 1.904-.879 15.64 15.64 0 0 0 2.978-.927c-.26-.293-.472-.668-.634-1.123a36.4 36.4 0 0 0-.44-1.514 1.083 1.083 0 0 0-.146-.342 1.914 1.914 0 0 1-.147-.39c-.065-.326-.114-.521-.146-.586a.433.433 0 0 0-.05-.196 4.836 4.836 0 0 1-.048-.683v-1.319c0-.195.033-.374.098-.537.13-.325.179-.537.146-.634a.92.92 0 0 1 .05-.293c.032-.13.064-.228.097-.293.065-.066.097-.18.097-.342.163-.228.326-.472.489-.733.195-.26.374-.52.537-.781.228-.358.44-.667.635-.928a4.27 4.27 0 0 0 .488-.83c.26-.163.472-.374.635-.635.195-.26.406-.488.634-.683.424-.488.83-.96 1.221-1.416a7.465 7.465 0 0 1 1.416-1.27c.358-.162.684-.358.977-.586.293-.227.586-.44.879-.634a3.17 3.17 0 0 1 .927-.586c.358-.163.7-.358 1.026-.586a1.09 1.09 0 0 0 .39-.147c.098-.065.212-.13.342-.195.228-.13.537-.244.928-.342.228-.065.423-.13.586-.195a1.54 1.54 0 0 1 .683-.049c.326.033.603.081.83.147.228.032.424.13.586.292.26.033.472.13.635.293.163.13.326.277.488.44h.196zm16.455 18.506c-.065.13-.082.244-.049.341.032.066.016.163-.049.294-.065.13-.146.244-.244.341a2.032 2.032 0 0 0-.293.39c-.163.261-.277.49-.342.684-.065.196-.211.375-.44.538a17.41 17.41 0 0 0-1.122.244c-.358.065-.7.114-1.026.146-.293 0-.65.017-1.074.05a4.142 4.142 0 0 1-1.123-.05 8.348 8.348 0 0 0-.635-.049h-.293c-.455 0-.976.066-1.562.196a9.016 9.016 0 0 1-1.563.146l-1.074-.097a4.955 4.955 0 0 0-1.172.048c-.358.066-.586.098-.683.098a.451.451 0 0 0-.293 0l-.489.098c-.13 0-.26.016-.39.049-.163.065-.358.13-.586.195a1.21 1.21 0 0 1-.586.049.525.525 0 0 1-.293-.098 1.136 1.136 0 0 0-.293-.195 2.79 2.79 0 0 0-.488-.147.639.639 0 0 1-.293-.293c.065-.228.114-.488.146-.781.033-.293.18-.602.44-.928l.244-.244c.098-.098.195-.211.293-.342.13-.162.211-.276.244-.341.065-.098.179-.212.342-.342.163-.065.309-.098.44-.098a1.53 1.53 0 0 0 .487-.195c.26.065.521.081.782.049.293-.033.504.016.634.146.489 0 .944.049 1.368.147.455.065.944.081 1.465.048.325 0 .634-.016.927-.048a9.524 9.524 0 0 1 1.074-.147h1.71c.26 0 .52-.016.78-.049a7.94 7.94 0 0 1 .88-.049c.292-.032.57-.016.83.05.26.032.52.048.78.048.261-.032.554-.065.88-.098a5.5 5.5 0 0 1 .976-.097c.163.065.31.114.44.146.13 0 .228.05.293.147zm4.785 13.672a8.266 8.266 0 0 0 1.563-.635c.52-.26 1.09-.472 1.708-.635a20.464 20.464 0 0 1 2.442-.146c.846 0 1.627-.098 2.344-.293a35.55 35.55 0 0 1 2.1-.293 3.114 3.114 0 0 1 1.806.341c.065.26.065.586 0 .977a5.43 5.43 0 0 1-.244.928c-.098.293-.18.52-.244.683-.066.163-.18.375-.342.635a1.73 1.73 0 0 1-.537.293 3.416 3.416 0 0 0-.489.244c-.293-.065-.602-.032-.927.098-.098-.13-.31-.163-.635-.098a2.749 2.749 0 0 0-1.27.195 2.028 2.028 0 0 1-1.172.147c-.26.065-.553.114-.878.146-.293 0-.619.033-.977.098a3.158 3.158 0 0 0-.977.342 1.427 1.427 0 0 1-.976.147c-.358.162-.732.309-1.123.439-.39.163-.798.325-1.22.488-.359.196-.57.293-.636.293a.374.374 0 0 0-.146.049c-.326.163-.57.26-.732.293-.13.032-.277.081-.44.146a1.84 1.84 0 0 1-.732-.146 20.065 20.065 0 0 1-.684-.244.858.858 0 0 1-.342-.342l-.293-.44c-.39-.39-.667-.797-.83-1.22a1.604 1.604 0 0 0-.244-.196l-.293-.195c-.163-.553-.147-1.025.049-1.416l.488-1.27c.196-.488.358-.992.488-1.513.13-.553.358-1.01.684-1.367.098-.293.277-.635.537-1.026a4.08 4.08 0 0 0 .44-1.025 5.916 5.916 0 0 1 .78-1.465c.131-.163.245-.309.343-.44.032-.162.081-.276.146-.341.098-.065.163-.18.195-.342a2.75 2.75 0 0 0 .733-1.074 4.46 4.46 0 0 1 .732-1.123c.26-.358.456-.749.586-1.172a5.09 5.09 0 0 1 .635-1.172l.293-.732c.098-.163.195-.342.293-.537.13-.293.244-.635.342-1.026.13-.39.276-.716.44-.976.064-.293.162-.537.292-.733.13-.195.228-.472.293-.83a2.12 2.12 0 0 0 .342-.83c.097-.325.212-.618.342-.879 0-.13.032-.244.097-.342.098-.13.114-.244.05-.341a.8.8 0 0 0 .243-.586 1.01 1.01 0 0 1 .293-.586c-.032-.228.05-.472.244-.733a1.09 1.09 0 0 1 .147-.39 1.27 1.27 0 0 0 .195-.342c.293-.553.472-.944.537-1.172.098-.26.196-.488.293-.684l.196-.195c.065-.098.114-.212.146-.342a9.36 9.36 0 0 0 .195-.537c.066-.195.13-.374.196-.537.065-.163.114-.31.146-.44a1.09 1.09 0 0 1 .147-.341c.228-.326.325-.505.293-.537 0-.033.016-.065.049-.098.065-.163.13-.31.195-.44l.195-.39c.358-.879.651-1.595.879-2.148.26-.554.553-1.107.879-1.66 0-.261-.033-.521-.098-.782-.065-.293-.032-.553.098-.781.26-.13.505-.277.732-.44a2.16 2.16 0 0 1 .83-.39c.13-.033.245.032.342.195.13.13.244.228.342.293.293.26.553.586.781.977.26.358.456.732.586 1.123.065.26.082.57.049.927 0 .326-.049.603-.147.83-.097.359-.227.635-.39.83.065.424.049.782-.049 1.075-.065.293-.146.57-.244.83a3.693 3.693 0 0 0-.781 1.172 3.17 3.17 0 0 0-.489.781c-.13.26-.276.52-.439.781a9.32 9.32 0 0 1-.44.781c-.162.26-.293.554-.39.88-.293.357-.472.634-.537.83a.758.758 0 0 1-.293.439 44.32 44.32 0 0 0-1.026 2.393 24.572 24.572 0 0 1-.976 2.1c.032.162 0 .292-.098.39-.098.065-.13.179-.098.341a7.29 7.29 0 0 0-.732 2.003 5.659 5.659 0 0 1-.732 2.002 12.426 12.426 0 0 1-1.123 2.587 21.254 21.254 0 0 0-1.172 2.442c-.163.065-.277.26-.342.586a8.127 8.127 0 0 0-.879 1.855 8.994 8.994 0 0 1-.781 1.905 11.59 11.59 0 0 1-.635 1.513 5.932 5.932 0 0 0-.537 1.563zm23.389-11.182c-.228.293-.456.57-.684.83-.228.26-.488.505-.781.732a5.237 5.237 0 0 1-.684.977c-.26.293-.52.57-.781.83-.13.26-.277.472-.44.635-.162.13-.341.277-.537.44a2.568 2.568 0 0 1-.39.488l-.39.488a2.703 2.703 0 0 0-.245.537c-.065.195-.049.407.049.635.358.065.716.016 1.074-.147.358-.163.667-.309.928-.44.26-.162.52-.292.781-.39.293-.13.553-.277.781-.44l1.27-1.269a3.59 3.59 0 0 0 .586-.634c.163-.228.341-.473.537-.733a3.07 3.07 0 0 1 .39-.977c.196-.358.277-.7.245-1.025a1.101 1.101 0 0 0-.196-.488 2.786 2.786 0 0 1-.146-.488c-.326 0-.586.065-.781.195a2.44 2.44 0 0 1-.586.244zm-7.862 3.125c.065-.033.196-.163.39-.39.229-.261.473-.538.733-.83.26-.326.505-.603.733-.83.228-.261.39-.408.488-.44.098-.163.18-.293.244-.39.098-.131.228-.245.39-.343a3.276 3.276 0 0 1 1.026-1.172c.423-.325.83-.7 1.22-1.123.62-.26 1.238-.585 1.856-.976a4.194 4.194 0 0 1 2.149-.684c.358.163.7.212 1.025.147.358-.065.684.016.977.244.162.293.309.488.44.586a.73.73 0 0 1 .292.244c.13.423.228.7.293.83.065.098.114.228.147.39.032.489.065.847.097 1.075.033.195.033.39 0 .586a14.58 14.58 0 0 1-.488 2.49c-.065.195-.13.407-.195.635a2.7 2.7 0 0 1-.244.537 6.825 6.825 0 0 0-.538.781 3.23 3.23 0 0 1-.292.488 24.6 24.6 0 0 1-1.026.977c-.293.163-.586.342-.879.537a2.57 2.57 0 0 1-.976.39c-.163.098-.31.196-.44.294a1.72 1.72 0 0 1-.488.146 4.848 4.848 0 0 1-.977.537 8.166 8.166 0 0 0-1.025.39 2.49 2.49 0 0 0-.635.343 3.667 3.667 0 0 1-.683.39c-.196.066-.44.13-.733.196a2.61 2.61 0 0 0-.635.146c.163.358.228.765.196 1.22-.033.457.048.863.244 1.222.423.097.879.179 1.367.244.52.032 1.01.016 1.465-.05a4.22 4.22 0 0 0 .537-.146c.195-.097.39-.162.586-.195.358-.065.7-.146 1.025-.244.358-.098.668-.228.928-.39a13.196 13.196 0 0 0 2.734-1.319 13.088 13.088 0 0 0 2.295-1.807c.391-.26.814-.618 1.27-1.074.488-.456.862-.879 1.123-1.27.488-.52.911-.927 1.27-1.22.39-.293.748-.423 1.074-.39.26 0 .504.162.732.488.26.293.244.618-.049.976-.325.195-.667.488-1.025.879-.358.39-.733.667-1.123.83-.293.195-.668.553-1.123 1.074-.423.521-.782.912-1.074 1.172-.13.13-.31.293-.538.488a3.453 3.453 0 0 0-.488.489c-.456.39-.944.748-1.465 1.074-.195-.065-.342-.033-.44.098a2.21 2.21 0 0 1-.39.39c-.097.065-.211.13-.342.196l-.292.195c-.26.228-.554.456-.88.683a5.554 5.554 0 0 1-.927.586 13.66 13.66 0 0 1-1.953.977 12.34 12.34 0 0 0-1.905 1.074 3.292 3.292 0 0 1-.537.049l-.488.098a1.71 1.71 0 0 1-.537.097c-.13 0-.326-.032-.586-.097-.586-.163-1.074-.358-1.465-.586-.39-.228-.781-.554-1.172-.977a5.033 5.033 0 0 0-.635-.537 2.1 2.1 0 0 1-.537-.537 4.863 4.863 0 0 1-.341-.781c-.13-.358-.244-.733-.342-1.123-.098-.424-.18-.83-.244-1.221a5.877 5.877 0 0 1-.098-.879 4.73 4.73 0 0 0 .244-.684c.065-.325.147-.667.244-1.025.065-.39.13-.749.196-1.074.032-.326.048-.554.048-.684.033-.032.114-.163.245-.39.13-.26.276-.538.439-.83.13-.293.244-.554.342-.782.098-.26.146-.423.146-.488zm31.104-2.393c.032.098 0 .293-.098.586-.163.196-.26.407-.293.635-.065.13-.13.244-.195.342a3.382 3.382 0 0 0-.098.39 2.164 2.164 0 0 0-.097.684c.032.26.032.505 0 .733-.066.358-.114.716-.147 1.074-.032.325-.065.667-.098 1.025 0 .358-.032.765-.097 1.22-.065.457-.13.863-.196 1.222.13.227.212.472.245.732a.95.95 0 0 0 .341.635c.651-.098 1.172-.244 1.563-.44.39-.228.765-.537 1.123-.927.293-.13.488-.245.586-.342.13-.098.325-.228.586-.39l.195-.196.195-.195c.359-.196.57-.326.635-.391.098-.065.212-.13.342-.195.553-.358.977-.733 1.27-1.123.293-.228.488-.424.585-.586.131-.196.391-.375.782-.538.228-.26.455-.472.683-.634.261-.196.505-.424.733-.684.162 0 .293.033.39.098.098.065.212.13.342.195.098.26.114.537.049.83a2.15 2.15 0 0 1-.342.733c-.163.227-.244.358-.244.39 0 .033-.016.065-.049.098-.097.13-.228.26-.39.39a1.666 1.666 0 0 0-.342.342c-.163.293-.293.44-.391.44a.332.332 0 0 0-.244.097 6.021 6.021 0 0 0-.635.391c-.097.098-.276.228-.537.39-.358.196-.57.326-.635.391a.765.765 0 0 1-.195.147c-.423.456-.814.83-1.172 1.123-.325.26-.683.618-1.074 1.074l-.39.293a1.35 1.35 0 0 0-.342.39 4.792 4.792 0 0 0-.733.587 38.31 38.31 0 0 1-.586.683 3.207 3.207 0 0 0-.635.44 5.588 5.588 0 0 1-.732.44c-.13.064-.277.145-.44.243a.97.97 0 0 1-.439.098 1.97 1.97 0 0 1-1.074-.098 6.038 6.038 0 0 0-.928-.293 1.745 1.745 0 0 0-.488-.488 3.331 3.331 0 0 1-.635-1.27c-.13-.488-.26-1.009-.39-1.562-.26.163-.505.374-.733.635a2.55 2.55 0 0 1-.879.635 28.977 28.977 0 0 1-2.1 1.806 86.598 86.598 0 0 0-2.197 1.758 1.937 1.937 0 0 1-.293.244c-.097.065-.179.081-.244.049-.163.195-.39.31-.683.342-.26.065-.554.065-.88 0a4.381 4.381 0 0 0-.878-.342 3.815 3.815 0 0 1-.782-.293 2.354 2.354 0 0 1-1.367-.732 5.214 5.214 0 0 1-.976-1.368 3.51 3.51 0 0 1-.196-.732 13.56 13.56 0 0 1-.195-.781 2.616 2.616 0 0 0-.146-.635.762.762 0 0 1 0-.537.323.323 0 0 1-.05-.293c.033-.13.05-.26.05-.39a4.667 4.667 0 0 1 .146-1.466 6.02 6.02 0 0 1 .44-1.416c.065-.13.195-.293.39-.488.065-.098.114-.195.147-.293a.614.614 0 0 1 .146-.244c.065-.098.163-.195.293-.293.13-.098.244-.195.342-.293a3.13 3.13 0 0 1 .537-.586c.228-.195.44-.39.635-.586a1.31 1.31 0 0 0 .244-.342.888.888 0 0 1 .39-.293c.13-.227.277-.407.44-.537.163-.163.342-.325.537-.488a7.01 7.01 0 0 1 2.05-1.709 12.128 12.128 0 0 0 2.198-1.563 2.51 2.51 0 0 0 .586-.341l.488-.391c.424-.358.863-.472 1.319-.342.456.13.879.244 1.27.342.325.293.634.586.927.879.326.293.602.618.83.977a3.12 3.12 0 0 1 .781 0c.293 0 .603-.033.928-.098a.92.92 0 0 0 .293-.049.474.474 0 0 1 .244-.098c.489.163.733.407.733.733l-.05.39zm-6.397.342c-.879.423-1.676.928-2.392 1.514-.716.553-1.4 1.155-2.051 1.806a8.033 8.033 0 0 1-.537.489c-.163.13-.31.277-.44.44a4.57 4.57 0 0 0-.39.585c-.098.228-.195.44-.293.635-.065.13-.13.244-.195.342-.066.065-.13.146-.196.244a1.306 1.306 0 0 0-.098.488c.033.163.05.342.05.537v.489c0 .162.016.325.048.488.098.358.147.716.147 1.074 0 .26.016.586.049.977.065.358.195.602.39.732s.39.163.586.098c.228-.065.423-.114.586-.147a44.493 44.493 0 0 0 3.223-2.734 18.676 18.676 0 0 0 2.685-3.272 20.632 20.632 0 0 1-.049-2.441c.066-.814 0-1.563-.195-2.246-.13-.065-.293-.082-.488-.049-.163 0-.31-.016-.44-.049zm25.977 8.985a4.57 4.57 0 0 1 .293-.342.738.738 0 0 1 .293-.244c.228-.489.472-.88.732-1.172.293-.326.586-.619.879-.88.293-.292.602-.552.928-.78.358-.26.749-.57 1.172-.928a.525.525 0 0 0 .39-.147c.131-.13.277-.227.44-.293a12 12 0 0 1 .537-.439c.163-.098.293-.228.391-.39.39-.196.732-.44 1.025-.733.325-.293.667-.57 1.025-.83a1.21 1.21 0 0 1 .83.098c.131.26.179.537.147.83-.033.293-.195.455-.488.488a3.245 3.245 0 0 1-.342.293.743.743 0 0 1-.391.195 1.153 1.153 0 0 0-.439.147c-.065.032-.13.114-.196.244-.032.325-.081.52-.146.586a.569.569 0 0 0-.098.146 6.122 6.122 0 0 1-.634.88l-.586.683a6.264 6.264 0 0 0-.586.683 7.693 7.693 0 0 0-.635.88c-.195.13-.342.308-.44.536a20.71 20.71 0 0 0-1.318.781 3.32 3.32 0 0 0-.732.635c-.196.13-.293.228-.293.293 0 .065-.033.13-.098.196-.325.26-.521.472-.586.634a.474.474 0 0 1-.195.293c-.326.228-.57.44-.733.635a1.745 1.745 0 0 1-.634.39 10.033 10.033 0 0 1-2.002 1.22 4.761 4.761 0 0 1-1.27.392c-.391.098-.732.081-1.025-.049a3.234 3.234 0 0 1-.342-.293 3.252 3.252 0 0 0-.342-.195 3.316 3.316 0 0 0-.732-.635 3.535 3.535 0 0 1-.635-.732 3.275 3.275 0 0 1-.488-1.026 4.47 4.47 0 0 0-.342-1.123 6.379 6.379 0 0 1 0-1.123 3.69 3.69 0 0 1 .195-.976c.358-1.107.781-2.067 1.27-2.881.521-.814.879-1.742 1.074-2.783-.358-.358-.57-.684-.635-.977a10.728 10.728 0 0 0-.244-1.318 10.877 10.877 0 0 0-2.344 2.1 22.876 22.876 0 0 0-1.904 2.587c-.228.39-.423.749-.586 1.074a4.138 4.138 0 0 1-.586.88c-.163.162-.244.276-.244.341 0 .033-.033.081-.098.147-.26.325-.423.553-.488.683s-.13.244-.195.342a1.972 1.972 0 0 1-.244.293 1.977 1.977 0 0 0-.245.293c-.455.651-.878 1.27-1.269 1.855-.358.554-.733 1.123-1.123 1.71-.163.26-.31.536-.44.83-.13.293-.293.553-.488.78-.325.033-.504-.016-.537-.146-.065-.13-.065-.244 0-.341a1.172 1.172 0 0 1-.44-.587 2.26 2.26 0 0 1-.195-.927 4.903 4.903 0 0 1 0-.977 2.83 2.83 0 0 1 .196-.83c-.098-.293-.13-.456-.098-.488.032-.033.049-.081.049-.147.423-.586.862-1.172 1.318-1.757a16.87 16.87 0 0 1 1.367-1.66c.163-.229.31-.456.44-.684.162-.228.342-.44.537-.635.293-.52.618-1.01.976-1.465.391-.456.717-.96.977-1.514.163-.162.277-.341.342-.537.097-.195.244-.358.439-.488.228-.39.407-.765.537-1.123.131-.358.31-.667.537-.928.066-.228.147-.407.245-.537.097-.13.227-.276.39-.44a.627.627 0 0 1 .244-.39 1.65 1.65 0 0 0 .391-.44c.065-.227.146-.374.244-.439s.147-.179.147-.341l.488-.489a3.5 3.5 0 0 0 .439-.683c.456-.26.765-.391.928-.391a.481.481 0 0 0 .44-.244h.927c.358-.033.554.081.586.342.033.065.033.146 0 .244l-.097.293c.032.293.032.456 0 .488-.033 0-.049.016-.049.049a1.07 1.07 0 0 0-.049.342c.032.13.049.276.049.44-.033.26-.065.471-.098.634-.033.13.033.31.195.537.065.098.163.195.293.293a.966.966 0 0 1 .342.293c.098.098.147.195.147.293a.757.757 0 0 0 .195.293.734.734 0 0 0 .293.244c.13.065.228.179.293.342.163.13.211.211.146.244-.032.032.049.098.244.195.391.489.668.993.831 1.514.195.39.374.716.537.976a.69.69 0 0 1 0 .782 1.6 1.6 0 0 0-.196.244 2.614 2.614 0 0 1-.146.342 3.2 3.2 0 0 0-.391.488 1.88 1.88 0 0 0-.146.39 1.256 1.256 0 0 1-.147.294c-.293.455-.602.878-.927 1.27a9.7 9.7 0 0 0-.782 1.22c.033.944.212 1.627.537 2.05.391.456.635.684.733.684.195.033.423-.032.683-.195.261-.163.472-.293.635-.39.13-.066.244-.131.342-.196.098-.065.212-.114.342-.147.358-.13.521-.162.488-.097-.032.032-.016.049.049.049zm8.74-2.149c.261-.163.472-.374.635-.635.163-.26.358-.52.586-.78a6.824 6.824 0 0 1 1.367-1.222c.228-.325.505-.57.83-.732.358-.195.635-.472.83-.83.065-.098.114-.195.147-.293l.195-.293a11.436 11.436 0 0 1 2.002-2.148 8.16 8.16 0 0 0 .537-.489 6.12 6.12 0 0 1 .684-.488 3.77 3.77 0 0 0 .83-.635c.293-.26.602-.456.927-.586.228-.097.44-.162.635-.195.196-.065.407-.13.635-.195a7.61 7.61 0 0 1 .586-.147c.195-.065.407-.065.635 0 .521.228.911.668 1.172 1.319.065.162.032.52-.098 1.074a17.25 17.25 0 0 1-.44 1.758c-.162.618-.341 1.22-.537 1.806-.195.586-.325 1.01-.39 1.27s-.082.407-.049.44c.032 0 .049.032.049.097-.065.163-.114.31-.147.44-.032.13-.065.276-.097.439-.066.26-.114.618-.147 1.074-.032.423-.016.765.049 1.025.358-.032.537-.065.537-.097.033-.033.081-.05.146-.05a.451.451 0 0 1 .293 0c.131 0 .245-.015.342-.048.358-.098.684-.228.977-.39.293-.196.569-.424.83-.684.586-.26 1.123-.521 1.611-.781.456-.326.814-.554 1.074-.684.293-.163.717-.374 1.27-.635.195-.228.472-.423.83-.586.391-.195.716-.407.977-.634l.244-.245c.097-.13.195-.162.293-.097.162.162.26.341.293.537.065.163.081.277.049.342-.261.26-.407.455-.44.586 0 .13-.032.227-.098.293-.162.162-.406.309-.732.439-.293.13-.472.244-.537.342a.758.758 0 0 1-.147.195 2.754 2.754 0 0 1-.293.244c-.097.065-.179.13-.244.196a.472.472 0 0 1-.293.195.925.925 0 0 0-.293.049 6.98 6.98 0 0 0-.488.44l-.439.439c-.261.26-.424.455-.489.586-.065.097-.244.244-.537.439l-.488.293-.488.293c-.456.228-.912.505-1.368.83l-1.367.977a10.23 10.23 0 0 1-1.025.537 5.03 5.03 0 0 0-.928.488h-.293c-.032-.033-.114-.016-.244.049a.443.443 0 0 0-.488 0 .634.634 0 0 1-.488 0c-.326-.26-.554-.423-.684-.489a.866.866 0 0 1-.244-.244 1.436 1.436 0 0 1-.098-.537c.033-.195 0-.358-.098-.488 0-.716.017-1.4.049-2.05a16.78 16.78 0 0 1 .342-2.052 10.1 10.1 0 0 1 .195-.927 20.696 20.696 0 0 0 .391-2.246c.033-.293 0-.472-.098-.538-.358.196-.732.489-1.123.88-.358.39-.7.716-1.025.976-.26.195-.521.374-.781.537-.228.163-.472.342-.733.537a4.657 4.657 0 0 0-.586.488c-.162.163-.341.358-.537.586-.228.228-.439.456-.635.684-.195.195-.423.39-.683.586-.13.13-.261.244-.391.342a1.994 1.994 0 0 0-.293.244l-.488.488c-.13.13-.309.244-.537.342a8.49 8.49 0 0 1-.781.879c-.293.325-.603.683-.928 1.074l-.879 1.074a6.823 6.823 0 0 0-.684.977c-.39.325-.813.602-1.269.83-.423.26-.944.293-1.563.098-.325-.196-.537-.358-.634-.489a.975.975 0 0 0-.342-.293c.032-.358.065-.7.097-1.025.033-.326.131-.667.293-1.026a.781.781 0 0 1 .147-.195c.032-.097.081-.195.146-.293.163-.293.277-.618.342-.976.033-.358.13-.7.293-1.026.195-.325.326-.586.391-.781a1.54 1.54 0 0 1 .195-.586 1.3 1.3 0 0 1 .293-.44c.098-.162.179-.325.244-.488.065-.162.179-.341.342-.537a2.93 2.93 0 0 0 .342-.586 14.7 14.7 0 0 1 .781-2.148c.065-.228.13-.44.195-.635.065-.228.147-.44.244-.635.163-.358.326-.7.489-1.025l.488-1.074.244-.489a4.62 4.62 0 0 1 .342-.488c.098-.163.179-.325.244-.488l.293-.488c.098-.163.179-.342.244-.537.098-.228.228-.44.391-.635a4.59 4.59 0 0 0 .537-.733c.13-.227.342-.374.635-.44.13.066.26.066.39 0 .163-.064.31-.113.44-.146a1.2 1.2 0 0 1 .439-.097c.13-.033.244.016.342.146.423.26.732.488.928.684.195.195.325.374.39.537.163.293.179.602.049.928-.13.293-.358.553-.683.78a4.775 4.775 0 0 1-.684 1.563c-.325.489-.618.96-.879 1.416l-.195.489-.195.488c-.196.456-.407.911-.635 1.367-.196.456-.423.895-.684 1.319-.13.26-.244.471-.342.634-.097.163-.195.31-.293.44a1.153 1.153 0 0 0-.244.39c-.065.163-.146.375-.244.635zm28.711-18.31a.526.526 0 0 1 .098.293c0 .097.049.179.146.244-.065.293-.13.602-.195.927a7.847 7.847 0 0 0-.049.88.6.6 0 0 0 .098.341c.097.098.146.195.146.293-.163.39-.293.619-.39.684a.328.328 0 0 0-.098.244.89.89 0 0 0-.391.293c-.065.13-.195.195-.39.195a.878.878 0 0 1-.244.244c-.066.033-.114.114-.147.244-.521.228-1.107.212-1.758-.048a1.434 1.434 0 0 0-.683-.635c-.424-.619-.44-1.351-.049-2.197l.195-.489c.098-.195.179-.325.244-.39.358-.26.619-.424.782-.489.13-.065.26-.146.39-.244.163-.097.342-.179.537-.244a.544.544 0 0 1 .244-.049.865.865 0 0 0 .391-.097 5.35 5.35 0 0 0 .342-.098.919.919 0 0 1 .293-.049l.488.147zm-7.568 21.582c.293-.13.651-.18 1.074-.147.423.033.765-.032 1.025-.195.131-.098.244-.196.342-.293a.34.34 0 0 1 .342-.098c.521-.195.96-.39 1.318-.586a4.593 4.593 0 0 1 1.172-.44 1.26 1.26 0 0 0 .342-.194c.163-.098.277-.18.342-.245.521-.162.895-.325 1.123-.488.228-.163.439-.325.635-.488.227-.163.439-.326.634-.488.228-.196.505-.424.83-.684.456-.26.83-.488 1.123-.684a8.76 8.76 0 0 0 1.026-.732c.065-.163.146-.277.244-.342a.97.97 0 0 0 .293-.342c.586 0 .911.228.977.684a2.298 2.298 0 0 1-.684.879 5.587 5.587 0 0 0-.733.781c-.26.163-.472.31-.634.44a2.32 2.32 0 0 0-.489.586c-.032 0-.13.08-.293.244-.162.13-.26.195-.293.195-.195.228-.341.374-.439.44a.762.762 0 0 1-.195.146c-.033 0-.098.032-.196.097a9.657 9.657 0 0 1-.439.391 2.833 2.833 0 0 1-.879.879 12.787 12.787 0 0 1-2.246 1.709 30.94 30.94 0 0 0-2.148 1.367.957.957 0 0 0-.342.293 3.245 3.245 0 0 1-.342.293c-.163.13-.423.26-.781.39-.326.131-.619.245-.879.343-.196.13-.375.227-.537.293-.716.032-1.27-.082-1.66-.342a45.576 45.576 0 0 1-.977-.537c-.228-.13-.423-.342-.586-.635-.358-.163-.586-.456-.684-.879a15.617 15.617 0 0 0-.244-1.318 17.159 17.159 0 0 1-.097-.537 2.373 2.373 0 0 1 0-.684c.065-.358.114-.733.146-1.123.033-.423.114-.781.244-1.074.163-.358.244-.716.244-1.075.033-.358.131-.716.293-1.074.196-.325.277-.504.244-.537 0-.032.017-.081.049-.146l.196-.293c.097-.098.179-.212.244-.342l.293-.733c.13-.227.276-.455.439-.683.163-.228.293-.505.391-.83.065-.196.146-.375.244-.537.13-.163.26-.342.391-.537a4.55 4.55 0 0 0 .244-.586 5.65 5.65 0 0 1 .244-.684c.098-.26.211-.52.342-.781l.488-.782c.13-.26.244-.455.342-.585.097-.13.293-.212.586-.245a.71.71 0 0 1 .439.05.842.842 0 0 0 .488-.05c.424-.195.717-.293.879-.293.163 0 .277-.048.342-.146.358.033.619.146.781.342.163.195.358.39.586.586-.195.944-.423 1.676-.683 2.197a35.01 35.01 0 0 1-.782 1.563c-.162.26-.325.553-.488.878l-.439.88a6.974 6.974 0 0 1-.537.976c-.163.26-.31.57-.44.928a3.368 3.368 0 0 1-.244.488c-.065.13-.13.276-.195.44a2.259 2.259 0 0 1-.293.634l-.293.488-.293.586a3.636 3.636 0 0 0-.244.635c-.163.39-.261.635-.293.733l-.098.195a2.782 2.782 0 0 1-.293.879c-.13.228-.081.39.147.488l.244.098zm13.232-3.272c.261-.163.472-.374.635-.635.163-.26.358-.52.586-.78a6.824 6.824 0 0 1 1.367-1.222c.228-.325.505-.57.83-.732.358-.195.635-.472.83-.83.065-.098.114-.195.147-.293l.195-.293a11.436 11.436 0 0 1 2.002-2.148 8.16 8.16 0 0 0 .537-.489 6.12 6.12 0 0 1 .684-.488 3.77 3.77 0 0 0 .83-.635c.293-.26.602-.456.927-.586.228-.097.44-.162.635-.195.196-.065.407-.13.635-.195a7.61 7.61 0 0 1 .586-.147c.195-.065.407-.065.635 0 .521.228.911.668 1.172 1.319.065.162.032.52-.098 1.074a17.25 17.25 0 0 1-.44 1.758c-.162.618-.341 1.22-.537 1.806-.195.586-.325 1.01-.39 1.27s-.082.407-.049.44c.032 0 .049.032.049.097-.065.163-.114.31-.147.44-.032.13-.065.276-.097.439-.066.26-.114.618-.147 1.074-.032.423-.016.765.049 1.025.358-.032.537-.065.537-.097.033-.033.081-.05.147-.05a.448.448 0 0 1 .292 0c.131 0 .245-.015.342-.048.358-.098.684-.228.977-.39.293-.196.569-.424.83-.684.586-.26 1.123-.521 1.611-.781.456-.326.814-.554 1.074-.684.293-.163.717-.374 1.27-.635.195-.228.472-.423.83-.586.391-.195.716-.407.977-.634l.244-.245c.097-.13.195-.162.293-.097.162.162.26.341.293.537.065.163.081.277.049.342-.261.26-.407.455-.44.586 0 .13-.032.227-.098.293-.162.162-.406.309-.732.439-.293.13-.472.244-.537.342a.758.758 0 0 1-.147.195 2.754 2.754 0 0 1-.293.244c-.097.065-.179.13-.244.196a.472.472 0 0 1-.293.195.925.925 0 0 0-.293.049 6.98 6.98 0 0 0-.488.44l-.439.439c-.261.26-.424.455-.489.586-.065.097-.244.244-.537.439l-.488.293-.488.293c-.456.228-.912.505-1.368.83l-1.367.977a10.23 10.23 0 0 1-1.025.537 5.03 5.03 0 0 0-.928.488h-.293c-.032-.033-.114-.016-.244.049a.443.443 0 0 0-.488 0 .637.637 0 0 1-.489 0c-.325-.26-.553-.423-.683-.489a.866.866 0 0 1-.244-.244 1.436 1.436 0 0 1-.098-.537c.033-.195 0-.358-.098-.488 0-.716.017-1.4.049-2.05a16.78 16.78 0 0 1 .342-2.052 10.1 10.1 0 0 1 .195-.927 20.696 20.696 0 0 0 .391-2.246c.033-.293 0-.472-.098-.538-.358.196-.732.489-1.123.88-.358.39-.7.716-1.025.976-.26.195-.521.374-.781.537-.228.163-.472.342-.733.537a4.657 4.657 0 0 0-.586.488c-.162.163-.341.358-.537.586-.228.228-.439.456-.635.684-.195.195-.423.39-.683.586-.13.13-.261.244-.391.342a1.994 1.994 0 0 0-.293.244l-.488.488c-.13.13-.309.244-.537.342a8.49 8.49 0 0 1-.781.879c-.293.325-.603.683-.928 1.074l-.879 1.074a6.823 6.823 0 0 0-.684.977c-.39.325-.813.602-1.269.83-.423.26-.944.293-1.563.098-.325-.196-.537-.358-.634-.489a.975.975 0 0 0-.342-.293c.032-.358.065-.7.097-1.025.033-.326.131-.667.293-1.026a.781.781 0 0 1 .147-.195c.032-.097.081-.195.146-.293.163-.293.277-.618.342-.976.033-.358.13-.7.293-1.026.195-.325.326-.586.391-.781a1.54 1.54 0 0 1 .195-.586 1.3 1.3 0 0 1 .293-.44c.098-.162.179-.325.244-.488.065-.162.179-.341.342-.537a2.93 2.93 0 0 0 .342-.586 14.7 14.7 0 0 1 .781-2.148c.065-.228.13-.44.195-.635.065-.228.147-.44.244-.635.163-.358.326-.7.489-1.025l.488-1.074.244-.489a4.62 4.62 0 0 1 .342-.488c.098-.163.179-.325.244-.488l.293-.488c.098-.163.179-.342.244-.537.098-.228.228-.44.391-.635a4.59 4.59 0 0 0 .537-.733c.13-.227.342-.374.635-.44.13.066.26.066.39 0 .163-.064.31-.113.44-.146a1.2 1.2 0 0 1 .439-.097c.13-.033.244.016.342.146.423.26.732.488.928.684.195.195.325.374.39.537.163.293.179.602.049.928-.13.293-.358.553-.683.78a4.775 4.775 0 0 1-.684 1.563c-.325.489-.618.96-.879 1.416l-.195.489-.195.488c-.196.456-.407.911-.635 1.367-.196.456-.423.895-.684 1.319-.13.26-.244.471-.342.634-.097.163-.195.31-.293.44a1.153 1.153 0 0 0-.244.39c-.065.163-.146.375-.244.635zm31.641-6.201c.065.065.146.016.244-.146l.293-.44c.065-.163.114-.326.146-.488l.196-.489a9.34 9.34 0 0 1 .732-1.123c.326-.39.57-.765.732-1.123a.784.784 0 0 1 .196-.146.88.88 0 0 0 .244-.244c.26-.033.439-.065.537-.098.098-.032.195-.081.293-.146.358.097.586.374.684.83a.953.953 0 0 1-.342.634c-.163.13-.277.31-.342.538a.869.869 0 0 0-.098.39c.033.13.017.26-.048.39a6.706 6.706 0 0 1-.684 1.563c-.26.489-.488 1.01-.684 1.563l-.488.976c-.13.326-.244.668-.342 1.026a29.89 29.89 0 0 0-1.025 2.05c-.326.717-.667 1.45-1.025 2.198.292-.065.553-.18.781-.342a6.15 6.15 0 0 1 .732-.537c.163-.065.309-.114.44-.147.13-.065.276-.13.439-.195l.586-.39.391-.196.293-.195a1.29 1.29 0 0 1 .341-.244.62.62 0 0 1 .245-.147.624.624 0 0 0 .293-.146 1.94 1.94 0 0 0 .439-.244 4.99 4.99 0 0 1 .439-.293c.196-.098.358-.196.489-.293a2.37 2.37 0 0 1 .586-.244l.293-.098.293-.195c.097-.033.195-.082.293-.147.097-.065.179-.114.244-.146.195-.066.309-.114.341-.147a.582.582 0 0 1 .147-.098c.325-.097.505-.162.537-.195a.762.762 0 0 0 .195-.146c.391-.26.684-.407.879-.44.196-.065.505-.228.928-.488.195.032.374.049.537.049a.466.466 0 0 1 .44.146c-.131.619-.375 1.042-.733 1.27a8.209 8.209 0 0 1-1.074.537 23.76 23.76 0 0 1-1.416 1.172c-.391.26-.895.586-1.514.976-.39.163-.732.342-1.025.537-.293 0-.521.05-.684.147-.13.098-.276.195-.439.293-.13.065-.277.114-.44.146a1.9 1.9 0 0 0-.39.147c-.326.195-.537.31-.635.342a.765.765 0 0 0-.195.146c-.326.423-.635.7-.928.83-.293.13-.553.326-.781.586-.554.163-1.009.423-1.367.781a4.439 4.439 0 0 1-1.27.88 30 30 0 0 0-.684 2.245 16.917 16.917 0 0 1-.634 2.198 65.734 65.734 0 0 1-.83 2.246 26.345 26.345 0 0 0-.684 2.295 10.096 10.096 0 0 0-.879 2.002 19.558 19.558 0 0 1-.83 2.148c-.26.195-.456.472-.586.83a1.63 1.63 0 0 1-.586.879 2.299 2.299 0 0 1-.684.879c-.292.26-.569.52-.83.781l-.195.195-.195.294c-.391.39-.814.78-1.27 1.171-.455.424-.862.863-1.22 1.319a7.586 7.586 0 0 0-.977.732c-.293.26-.586.537-.879.83a7.4 7.4 0 0 1-.391.147c-.13.065-.26.049-.39-.05a2.173 2.173 0 0 1-1.026.05c-.358-.065-.504-.277-.439-.635-.195-.163-.309-.31-.342-.44a2.603 2.603 0 0 0-.146-.341c.13-.26.13-.505 0-.733-.131-.195-.196-.374-.196-.537 0-.423.049-.83.147-1.22a3.78 3.78 0 0 1 .342-1.124c.13-.293.276-.618.439-.976.195-.456.374-.895.537-1.319.13-.39.277-.813.44-1.269a3.73 3.73 0 0 0 .488-1.172c.065-.39.179-.781.342-1.172l.39-.781c.163-.228.261-.472.293-.733.261-.488.537-.927.83-1.318.326-.39.603-.83.831-1.318a15.993 15.993 0 0 1 2.929-3.174c1.107-.879 2.23-1.742 3.369-2.588a6.11 6.11 0 0 1 .244-.293l.147-.146a.574.574 0 0 1 .146-.098c.066-.033.179-.13.342-.293.065-.032.098-.098.098-.195a.769.769 0 0 1 .195-.293c.261-.716.57-1.514.928-2.393.358-.911.618-1.66.781-2.246a.788.788 0 0 0-.39.342 1.157 1.157 0 0 1-.245.39.866.866 0 0 1-.244.245c-.097.065-.179.13-.244.195l-.244.244a.866.866 0 0 0-.244.244c-.228.196-.423.375-.586.537l-.391.391a4.24 4.24 0 0 1-.39.44c-.131.13-.31.292-.537.488-.261.358-.538.7-.83 1.025-.261.293-.57.537-.928.733a7.962 7.962 0 0 1-1.514.878c-.521.228-1.009.424-1.465.586l-.683.196a1.22 1.22 0 0 1-.537.146c-.066.033-.147.033-.245 0h-.293c-.52 0-.96-.065-1.318-.195a2.45 2.45 0 0 0-.244-.147 1.136 1.136 0 0 1-.195-.293l-.245-.244a8.157 8.157 0 0 1-.244-.342 1.307 1.307 0 0 1-.097-.488c0-.195-.033-.374-.098-.537a5.637 5.637 0 0 0-.244-.879 1.617 1.617 0 0 1-.049-.879 1.92 1.92 0 0 1 .098-.244.46.46 0 0 0 0-.293l-.098-.293a1.215 1.215 0 0 1-.146-.293 1.219 1.219 0 0 1-.147-.293.79.79 0 0 1-.098-.342.672.672 0 0 1 .098-.488c.065-.195.065-.358 0-.488l.293-.684c.065-.228.179-.44.342-.634.228-.326.39-.586.488-.782.065-.228.163-.423.293-.586a8.25 8.25 0 0 1 .488-.78 6.14 6.14 0 0 0 .538-.733 19.54 19.54 0 0 1 2.05-2.93c.13-.065.244-.114.342-.146.098-.033.163-.115.195-.245a16.672 16.672 0 0 0 2.149-1.172c.358-.097.667-.26.928-.488.293-.26.618-.456.976-.586.293-.13.602-.293.928-.488a2.39 2.39 0 0 1 1.025-.342c.326 0 .57-.049.733-.146l.488-.293a2.897 2.897 0 0 1 1.562-.342c.261.26.521.456.782.586.293.13.521.342.683.635.065.13.098.293.098.488.033.195.065.407.098.635.065.162.114.341.146.537.065.162.114.325.147.488.032.39.016.781-.049 1.172a6.38 6.38 0 0 0 0 1.123zm-2.588-2.05a.715.715 0 0 1-.44.146c-.13 0-.26.032-.39.097-.065.065-.147.13-.244.196a.769.769 0 0 0-.196.146 6.73 6.73 0 0 1-.976.44 3.584 3.584 0 0 0-.879.39 1.65 1.65 0 0 0-.391.44c-.097.13-.228.244-.39.341-.196.13-.407.245-.635.342a2.053 2.053 0 0 0-.537.39 1.912 1.912 0 0 0-.244.294c-.033.098-.131.146-.293.146a8.333 8.333 0 0 1-1.319 1.856 6.936 6.936 0 0 0-1.269 1.904.59.59 0 0 0-.342.342 1.56 1.56 0 0 1-.195.488c-.358.651-.505 1.156-.44 1.514.098.325.163.65.195.976.196.26.456.342.782.244a4.91 4.91 0 0 0 .927-.439c.326-.228.635-.472.928-.732l.977-.88c.325-.26.618-.536.879-.83.293-.325.569-.634.83-.927.13-.163.26-.293.39-.39.131-.098.261-.228.391-.391l.439-.44c.131-.162.277-.293.44-.39.26-.358.488-.7.683-1.026.228-.325.473-.634.733-.927.163-.424.325-.814.488-1.172a6.81 6.81 0 0 0 .488-1.123 1.436 1.436 0 0 1-.097-.538c0-.227-.082-.39-.244-.488h-.049zm-3.955 17.675a1.209 1.209 0 0 0-.293.147 1.245 1.245 0 0 1-.293.292l-.977.977c-.293.358-.569.749-.83 1.172-.293.423-.635.83-1.025 1.22a3.13 3.13 0 0 0-.733 1.319 17.807 17.807 0 0 0-.976 1.709 10.548 10.548 0 0 0-.635 1.953c-.065.39-.13.7-.195.928a5.211 5.211 0 0 0-.147.683c.196-.195.391-.407.586-.634a4.98 4.98 0 0 0 .586-.586.62.62 0 0 0 .147-.245c.065-.097.13-.178.195-.244a29.86 29.86 0 0 1 1.221-1.611c.423-.52.813-1.058 1.172-1.611a6.98 6.98 0 0 0 .439-.586c.13-.163.26-.342.391-.537a10.167 10.167 0 0 0 1.367-2.637c.325-.912.667-1.855 1.025-2.832-.195.195-.39.358-.586.488a2.41 2.41 0 0 0-.439.635z"/></symbol><symbol id="send" viewBox="0 0 12 10"><path fill="#fff" d="M.006 10L12 5 .006 0 0 3.889 8.571 5 0 6.111.006 10z"/></symbol><symbol id="uiux" viewBox="0 0 88 88"><circle cx="44" cy="44" r="44" fill="#E5FCFF"/><g fill="#00D9FF" clip-path="url(#a)" filter="url(#b)"><path d="M55.624 43.29a.872.872 0 0 0-.075-.044l-1.703-.917-9.445 5a.857.857 0 0 1-.802 0l-9.445-5-1.703.917a.849.849 0 0 0-.307 1.222L44 50.745l11.856-6.277a.849.849 0 0 0-.232-1.177z"/><path d="M55.897 48.736a.856.856 0 0 0-.348-.347l-1.703-.918-9.444 5.001a.857.857 0 0 1-.803 0l-9.445-5-1.703.917a.857.857 0 0 0 0 1.508l11.143 6a.857.857 0 0 0 .813 0l11.142-6a.857.857 0 0 0 .348-1.161zm-.273-10.588a.872.872 0 0 0-.075-.044l-11.143-6a.857.857 0 0 0-.812 0l-11.143 6a.849.849 0 0 0-.307 1.222L44 45.603l11.856-6.277a.849.849 0 0 0-.232-1.178z"/></g><defs><filter id="b" width="54" height="54" x="17" y="27" color-interpolation-filters="sRGB" filterUnits="userSpaceOnUse"><feFlood flood-opacity="0" result="BackgroundImageFix"/><feColorMatrix in="SourceAlpha" result="hardAlpha" values="0 0 0 0 0 0 0 0 0 0 0 0 0 0 0 0 0 0 127 0"/><feOffset dy="10"/><feGaussianBlur stdDeviation="7.5"/><feColorMatrix values="0 0 0 0 0 0 0 0 0 0.606323 0 0 0 0 0.7125 0 0 0 0.2 0"/><feBlend in2="BackgroundImageFix" result="effect1_dropShadow_1_1261"/><feBlend in="SourceGraphic" in2="effect1_dropShadow_1_1261" result="shape"/></filter><clipPath id="a"><path fill="#fff" d="M0 0h24v24H0z" transform="translate(32 32)"/></clipPath></defs></symbol><symbol id="union" viewBox="0 0 30 30"><path fill="#fff" d="M10.54 19.46H4.865v4.053h5.675V19.46zM4.865 6.486h5.675v4.054H4.865V6.486zM17.838 19.46h-5.676v4.053h5.676V19.46zM12.162 6.486h5.676v4.054h-5.676V6.486zm12.973 6.487H4.865v4.054h20.27v-4.054zM19.46 19.46h5.675v4.053H19.46V19.46zm5.675-12.974H19.46v4.054h5.676V6.486z"/><path fill="#fff" fill-rule="evenodd" d="M0 1.622C0 .726.726 0 1.622 0h26.756C29.274 0 30 .726 30 1.622v26.756c0 .896-.726 1.622-1.622 1.622H1.622A1.622 1.622 0 0 1 0 28.378V1.622zm1.622 0h26.756v26.756H1.622V1.622z" clip-rule="evenodd"/></symbol><symbol id="play" viewBox="0 0 12 13"><path fill="#0DACFF" d="M12 6.5L.75.005v12.99L12 6.5z"/></symbol></svg>