<svg xmlns="http://www.w3.org/2000/svg"><symbol id="energy" viewBox="0 0 45 45"><g fill="#fff" clip-path="url(#a)"><path d="M34.742 15.94l-9.546 2.088 4.667-16.344c.406-1.42-1.494-2.33-2.345-1.12L8.898 27.015c-.7.995.213 2.33 1.394 2.039l8.505-2.094-4.652 16.36c-.4 1.41 1.466 2.308 2.327 1.146l19.61-26.453c.724-.976-.153-2.332-1.34-2.073zM18.658 37.092L21.954 25.5a1.319 1.319 0 0 0-1.583-1.64l-7.289 1.793 12.106-17.2-3.133 10.972a1.319 1.319 0 0 0 1.55 1.65l8.266-1.808-13.213 17.824zm15.232-.002l-3.163-.052 1.68-3.305a1.318 1.318 0 1 0-2.35-1.195l-2.637 5.185c-.536 1.052.166 1.74 1.177 1.916l3.156.053-1.7 3.4a1.318 1.318 0 0 0 2.358 1.18l2.637-5.274a1.321 1.321 0 0 0-1.158-1.908zM13.366.143a1.318 1.318 0 0 0-1.768.59L8.96 6.004a1.32 1.32 0 0 0 1.187 1.908h3.132l-1.682 3.365a1.318 1.318 0 0 0 2.358 1.18l2.636-5.274a1.32 1.32 0 0 0-1.179-1.907h-3.14l1.683-3.366a1.318 1.318 0 0 0-.59-1.768z"/></g><defs><clipPath id="a"><path fill="#fff" d="M0 0h45v45H0z"/></clipPath></defs></symbol><symbol id="dev" viewBox="0 0 88 88"><circle cx="44" cy="44" r="44" fill="#FFEEE5"/><g clip-path="url(#a)" filter="url(#b)"><path fill="#FF5600" d="M44.03 31.953l-10.39 6v12l10.39 6 10.39-6v-12l-10.39-6zm-4.01 13.892l-.995.995-2.887-2.887 2.887-2.886.995.995-1.892 1.891 1.892 1.892zm2.985 1.735l-1.259-.63 3.313-6.624 1.258.63-3.312 6.624zm6.034-.74l-.995-.995 1.891-1.892-1.891-1.891.995-.995 2.886 2.886-2.886 2.887z"/></g><defs><filter id="b" width="54" height="54" x="17" y="27" color-interpolation-filters="sRGB" filterUnits="userSpaceOnUse"><feFlood flood-opacity="0" result="BackgroundImageFix"/><feColorMatrix in="SourceAlpha" result="hardAlpha" values="0 0 0 0 0 0 0 0 0 0 0 0 0 0 0 0 0 0 127 0"/><feOffset dy="10"/><feGaussianBlur stdDeviation="7.5"/><feColorMatrix values="0 0 0 0 1 0 0 0 0 0.337255 0 0 0 0 0 0 0 0 0.2 0"/><feBlend in2="BackgroundImageFix" result="effect1_dropShadow_1_1252"/><feBlend in="SourceGraphic" in2="effect1_dropShadow_1_1252" result="shape"/></filter><clipPath id="a"><path fill="#fff" d="M0 0h24v24H0z" transform="translate(32 32)"/></clipPath></defs></symbol><symbol id="chat" viewBox="0 0 45 45"><g fill="#fff" clip-path="url(#a)"><path d="M41.18 26.945a1.758 1.758 0 0 0-3.26 1.318l2.07 5.12-6.148-2.71a1.758 1.758 0 0 0-1.399-.008 16.948 16.948 0 0 1-6.69 1.351c-9.411 0-15.733-7.368-15.733-14.25 0-7.858 7.058-14.25 15.732-14.25 8.675 0 15.733 6.392 15.733 14.25 0 .613-.057 1.347-.157 2.014a1.758 1.758 0 1 0 3.477.518A17.69 17.69 0 0 0 45 17.766c0-4.775-2.022-9.256-5.693-12.616C35.678 1.829 30.865 0 25.752 0c-5.112 0-9.925 1.83-13.554 5.15-3.28 3.003-5.243 6.9-5.624 11.103C2.447 18.986.001 23.366.001 28.083c0 2.947.928 5.743 2.695 8.15L.13 42.582a1.758 1.758 0 0 0 2.338 2.268l7.403-3.264a16.73 16.73 0 0 0 5.863 1.044c.044 0 .087-.003.13-.006 2.939-.022 5.796-.795 8.27-2.242 2.217-1.296 4.04-3.076 5.318-5.178a20.23 20.23 0 0 0 3.652-1.015l9.43 4.157A1.756 1.756 0 0 0 44.466 38a1.758 1.758 0 0 0 .406-1.92l-3.692-9.135zM15.733 39.111c-.024 0-.047.003-.071.004a13.185 13.185 0 0 1-5.136-1.05 1.757 1.757 0 0 0-1.399.008l-4.116 1.815 1.327-3.285a1.76 1.76 0 0 0-.291-1.8c-1.656-1.941-2.53-4.265-2.53-6.72 0-2.809 1.18-5.47 3.248-7.488.644 3.509 2.46 6.865 5.2 9.502 3.41 3.281 7.92 5.182 12.789 5.411-2.287 2.25-5.558 3.603-9.021 3.603z"/><path d="M25.664 19.6a1.758 1.758 0 1 0 0-3.516 1.758 1.758 0 0 0 0 3.516zm7.031 0a1.758 1.758 0 1 0 0-3.516 1.758 1.758 0 0 0 0 3.516zm-14.062 0a1.758 1.758 0 1 0 0-3.516 1.758 1.758 0 0 0 0 3.516z"/></g><defs><clipPath id="a"><path fill="#fff" d="M0 0h45v45H0z"/></clipPath></defs></symbol><symbol id="decrease" viewBox="0 0 45 45"><g clip-path="url(#a)"><path fill="#fff" d="M43.885 25.977l-17.457 17.48A5.27 5.27 0 0 1 22.692 45a5.265 5.265 0 0 1-3.731-1.54L1.298 25.987a4.087 4.087 0 0 1-.897-4.47 4.089 4.089 0 0 1 3.79-2.532h5.826v-5.098a1.758 1.758 0 0 1 3.516 0v6.856c0 .97-.787 1.758-1.758 1.758H4.191a.557.557 0 0 0-.542.36.545.545 0 0 0 .127.632L21.44 40.965a1.77 1.77 0 0 0 2.502.006l17.455-17.478a.545.545 0 0 0 .126-.631.558.558 0 0 0-.541-.36h-7.233c-.97 0-1.758-.787-1.758-1.758v-6.857a1.758 1.758 0 1 1 3.516 0v5.098h5.475a4.09 4.09 0 0 1 3.789 2.53 4.083 4.083 0 0 1-.886 4.462zm-32.11-22.46a1.758 1.758 0 1 0 0-3.517 1.758 1.758 0 0 0 0 3.516zm0 6.152a1.758 1.758 0 1 0 0-3.516 1.758 1.758 0 0 0 0 3.516zM33.75 3.516a1.758 1.758 0 1 0 0-3.516 1.758 1.758 0 0 0 0 3.516zm0 6.153a1.758 1.758 0 1 0 0-3.516 1.758 1.758 0 0 0 0 3.516zm-10.052 16.7H21.08c-.419 0-.87-.24-.87-.769a1.758 1.758 0 0 0-3.515 0c0 2.349 1.84 4.2 4.22 4.28v.972a1.758 1.758 0 1 0 3.516 0v-1.018c2.419-.337 4.221-2.317 4.221-4.783v-1.07a4.85 4.85 0 0 0-1.464-3.493 4.954 4.954 0 0 0-3.49-1.414h-1.611c-.774 0-1.429-.685-1.429-1.495v-.64c0-.788.614-1.381 1.429-1.381h1.523c.448 0 .911.3.911.801a1.758 1.758 0 0 0 3.516 0c0-2.107-1.556-3.865-3.606-4.241v-1.13a1.758 1.758 0 1 0-3.515 0v1.19A4.909 4.909 0 0 0 18.6 13.45a4.84 4.84 0 0 0-1.46 3.49v.64c0 2.763 2.219 5.01 4.945 5.01h1.61c.808 0 1.44.612 1.44 1.393v1.069c0 .865-.724 1.318-1.44 1.318z"/></g><defs><clipPath id="a"><path fill="#fff" d="M0 0h45v45H0z"/></clipPath></defs></symbol><symbol id="send" viewBox="0 0 12 10"><path fill="#fff" d="M.006 10L12 5 .006 0 0 3.889 8.571 5 0 6.111.006 10z"/></symbol><symbol id="uiux" viewBox="0 0 88 88"><circle cx="44" cy="44" r="44" fill="#E5FCFF"/><g fill="#00D9FF" clip-path="url(#a)" filter="url(#b)"><path d="M55.624 43.29a.872.872 0 0 0-.075-.044l-1.703-.917-9.445 5a.857.857 0 0 1-.802 0l-9.445-5-1.703.917a.849.849 0 0 0-.307 1.222L44 50.745l11.856-6.277a.849.849 0 0 0-.232-1.177z"/><path d="M55.897 48.736a.856.856 0 0 0-.348-.347l-1.703-.918-9.444 5.001a.857.857 0 0 1-.803 0l-9.445-5-1.703.917a.857.857 0 0 0 0 1.508l11.143 6a.857.857 0 0 0 .813 0l11.142-6a.857.857 0 0 0 .348-1.161zm-.273-10.588a.872.872 0 0 0-.075-.044l-11.143-6a.857.857 0 0 0-.812 0l-11.143 6a.849.849 0 0 0-.307 1.222L44 45.603l11.856-6.277a.849.849 0 0 0-.232-1.178z"/></g><defs><filter id="b" width="54" height="54" x="17" y="27" color-interpolation-filters="sRGB" filterUnits="userSpaceOnUse"><feFlood flood-opacity="0" result="BackgroundImageFix"/><feColorMatrix in="SourceAlpha" result="hardAlpha" values="0 0 0 0 0 0 0 0 0 0 0 0 0 0 0 0 0 0 127 0"/><feOffset dy="10"/><feGaussianBlur stdDeviation="7.5"/><feColorMatrix values="0 0 0 0 0 0 0 0 0 0.606323 0 0 0 0 0.7125 0 0 0 0.2 0"/><feBlend in2="BackgroundImageFix" result="effect1_dropShadow_1_1261"/><feBlend in="SourceGraphic" in2="effect1_dropShadow_1_1261" result="shape"/></filter><clipPath id="a"><path fill="#fff" d="M0 0h24v24H0z" transform="translate(32 32)"/></clipPath></defs></symbol><symbol id="play" viewBox="0 0 12 13"><path fill="#0DACFF" d="M12 6.5L.75.005v12.99L12 6.5z"/></symbol><symbol id="knowledge" viewBox="0 0 30 30"><g fill="#fff" clip-path="url(#a)"><path d="M12.363 8.212v3.636l.258.258c.082.082 2.059 2.015 5.894 2.015 3.836 0 5.813-1.933 5.895-2.015l.258-.258V8.212l1.758-.703v4.854h1.757V6.806l1.488-.595-11.155-4.462L7.36 6.21l5.003 2.001zm10.547 2.863c-.56.418-2.012 1.288-4.395 1.288-2.383 0-3.835-.87-4.394-1.288v-2.16l4.394 1.758 4.395-1.758v2.16zm2.028-4.864L18.516 8.78l-6.423-2.57 6.422-2.568 6.423 2.569z"/><path d="M6.774 7.653L5.53 6.41 4.406 7.534a6.16 6.16 0 0 1 6.14-5.776V0c-4.241 0-7.713 3.357-7.9 7.554L1.5 6.41.257 7.653l3.258 3.258 3.259-3.258zM29.742 20.59l-3.258-3.259-3.258 3.258 1.243 1.243 1.136-1.136v1.394a6.16 6.16 0 0 1-6.152 6.152V30c4.362 0 7.91-3.549 7.91-7.91v-1.394l1.137 1.136 1.242-1.243zm-8.59 4.078v-5.557l1.488-.595-11.156-4.463L.33 18.516l5.003 2.001v3.636l.257.258c.083.082 2.06 2.015 5.895 2.015 3.836 0 5.813-1.933 5.895-2.015l.258-.258v-3.636l1.757-.703v4.854h1.758zM15.88 23.38c-.56.417-2.012 1.288-4.395 1.288-2.383 0-3.835-.87-4.394-1.288v-2.16l4.394 1.758 4.395-1.758v2.16zm-4.395-2.295l-6.422-2.57 6.422-2.568 6.423 2.569-6.423 2.569z"/></g><defs><clipPath id="a"><path fill="#fff" d="M0 0h30v30H0z"/></clipPath></defs></symbol><symbol id="design" viewBox="0 0 88 88"><circle cx="44" cy="44" r="44" fill="#F3EBFF"/><g fill="#7118EF" clip-path="url(#a)" filter="url(#b)"><path d="M49.801 39.504a2.157 2.157 0 0 1-3.559 2.254 2.159 2.159 0 1 1 2.254-3.559L54.695 32 41.16 34.506l-3.798 8.545 7.586 7.586 8.545-3.798L56 33.305l-6.2 6.199zm-14.749 3.271L32 45.827 42.173 56l3.052-3.052-10.173-10.173z"/><path d="M47.05 40.231a.72.72 0 0 0 1.227.51v-.001a.72.72 0 1 0-1.228-.509z"/></g><defs><filter id="b" width="54" height="54" x="17" y="27" color-interpolation-filters="sRGB" filterUnits="userSpaceOnUse"><feFlood flood-opacity="0" result="BackgroundImageFix"/><feColorMatrix in="SourceAlpha" result="hardAlpha" values="0 0 0 0 0 0 0 0 0 0 0 0 0 0 0 0 0 0 127 0"/><feOffset dy="10"/><feGaussianBlur stdDeviation="7.5"/><feColorMatrix values="0 0 0 0 0.443137 0 0 0 0 0.0941176 0 0 0 0 0.937255 0 0 0 0.2 0"/><feBlend in2="BackgroundImageFix" result="effect1_dropShadow_1_1277"/><feBlend in="SourceGraphic" in2="effect1_dropShadow_1_1277" result="shape"/></filter><clipPath id="a"><path fill="#fff" d="M0 0h24v24H0z" transform="translate(32 32)"/></clipPath></defs></symbol><symbol id="union" viewBox="0 0 30 30"><path fill="#fff" d="M10.54 19.46H4.865v4.053h5.675V19.46zM4.865 6.486h5.675v4.054H4.865V6.486zM17.838 19.46h-5.676v4.053h5.676V19.46zM12.162 6.486h5.676v4.054h-5.676V6.486zm12.973 6.487H4.865v4.054h20.27v-4.054zM19.46 19.46h5.675v4.053H19.46V19.46zm5.675-12.974H19.46v4.054h5.676V6.486z"/><path fill="#fff" fill-rule="evenodd" d="M0 1.622C0 .726.726 0 1.622 0h26.756C29.274 0 30 .726 30 1.622v26.756c0 .896-.726 1.622-1.622 1.622H1.622A1.622 1.622 0 0 1 0 28.378V1.622zm1.622 0h26.756v26.756H1.622V1.622z" clip-rule="evenodd"/></symbol></svg>